<?xml version="1.0" standalone="no"?>
<!DOCTYPE svg PUBLIC "-//W3C//DTD SVG 20010904//EN"
 "http://www.w3.org/TR/2001/REC-SVG-20010904/DTD/svg10.dtd">
<svg version="1.0" xmlns="http://www.w3.org/2000/svg"
 width="1246.000000pt" height="1404.000000pt" viewBox="0 0 1246.000000 1404.000000"
 preserveAspectRatio="xMidYMid meet">

<g transform="translate(0.000000,1404.000000) scale(0.100000,-0.100000)"
fill="#FFFFFF" stroke="none">
<path d="M7088 13658 c-53 -14 -123 -79 -144 -133 -14 -38 -16 -70 -12 -202 8
-247 64 -464 183 -708 77 -158 142 -258 230 -353 l67 -72 -18 -28 c-10 -15
-333 -472 -718 -1017 -385 -544 -706 -1008 -714 -1030 -20 -58 -10 -146 22
-196 75 -112 237 -132 336 -40 21 20 357 486 745 1036 486 688 712 1000 723
999 9 -1 68 -23 130 -49 300 -125 688 -133 1002 -23 234 83 324 170 324 313
-1 128 -98 225 -225 225 -36 0 -112 -34 -168 -75 -45 -33 -143 -63 -271 -82
-88 -13 -123 -13 -223 -4 -149 15 -209 31 -325 86 -130 62 -224 127 -313 216
-89 90 -130 149 -197 285 -91 182 -129 327 -141 535 -6 94 -15 159 -26 185
-24 59 -82 112 -139 129 -56 17 -75 17 -128 3z"/>
<path d="M5552 12147 c-55 -17 -108 -76 -173 -192 -112 -201 -274 -404 -426
-536 -63 -54 -170 -111 -246 -130 -121 -30 -350 19 -480 104 -84 54 -184 153
-271 267 -95 126 -110 151 -141 245 -40 123 -76 166 -164 192 -74 21 -142 6
-201 -44 -141 -121 -95 -342 137 -651 207 -276 399 -422 669 -511 l119 -39 3
-966 2 -966 -27 -5 c-16 -3 -74 -21 -131 -39 l-102 -33 -578 786 c-318 432
-582 792 -586 798 -4 8 20 44 62 94 168 197 252 431 269 750 11 205 -23 349
-98 413 -111 94 -274 62 -341 -67 -18 -35 -21 -55 -18 -117 13 -284 -3 -415
-70 -557 -106 -227 -424 -417 -670 -400 -41 3 -113 15 -160 27 -125 32 -197
20 -264 -47 -104 -102 -81 -273 47 -347 60 -36 233 -75 357 -82 130 -7 264 13
405 61 73 25 102 31 107 22 3 -7 268 -367 587 -801 320 -434 581 -793 581
-797 0 -5 -20 -34 -44 -64 -25 -30 -57 -75 -71 -100 -15 -25 -33 -45 -39 -45
-7 0 -424 132 -927 294 l-914 294 -7 144 c-15 315 -97 546 -281 790 -88 118
-286 319 -346 352 -104 56 -206 44 -282 -33 -101 -100 -85 -255 35 -341 54
-39 215 -215 269 -294 53 -79 113 -208 132 -287 9 -35 18 -121 22 -190 5 -111
3 -134 -15 -195 -26 -84 -78 -168 -160 -255 -101 -108 -225 -169 -389 -189
-122 -16 -173 -34 -216 -78 -130 -134 -61 -342 125 -376 20 -4 78 -2 130 5
328 40 578 183 775 445 46 61 60 74 77 70 12 -3 432 -137 934 -298 l912 -293
-2 -113 -3 -114 -900 -329 c-495 -181 -905 -329 -910 -329 -6 0 -29 28 -52 63
-95 143 -217 249 -434 378 -153 91 -242 131 -408 186 -211 70 -318 61 -399
-31 -43 -49 -54 -78 -54 -148 0 -101 67 -185 167 -209 188 -43 341 -107 513
-213 177 -110 255 -203 312 -373 28 -83 33 -112 33 -188 -1 -183 -64 -287
-368 -605 -105 -110 -135 -157 -142 -225 -15 -125 88 -239 217 -239 94 -1 130
25 310 217 235 251 337 402 394 584 28 90 48 249 40 321 l-6 47 904 329 c497
181 908 331 914 333 7 2 33 -28 59 -67 26 -38 69 -95 97 -125 31 -35 47 -59
42 -67 -13 -23 -1126 -1592 -1138 -1605 -9 -10 -28 -4 -87 27 -325 170 -685
172 -1024 4 -109 -54 -228 -143 -270 -202 -27 -40 -30 -51 -30 -121 0 -68 3
-83 28 -119 38 -58 93 -92 159 -99 72 -7 118 8 199 68 36 27 95 62 130 79 357
167 710 30 990 -382 51 -75 133 -247 149 -313 6 -27 14 -102 16 -165 6 -139
15 -171 67 -227 114 -124 320 -71 368 96 17 57 16 230 -1 331 -34 199 -145
431 -307 642 l-43 57 23 48 c32 68 1157 1648 1171 1646 6 -1 54 -14 106 -29
87 -25 111 -28 270 -28 191 -1 273 13 420 73 l67 27 592 -823 592 -824 -59
-72 c-197 -241 -265 -438 -291 -837 -6 -90 -6 -164 0 -195 13 -71 53 -125 118
-157 93 -47 178 -33 252 41 58 57 65 82 79 280 12 184 24 264 51 345 105 316
473 542 809 498 105 -14 315 -77 432 -129 140 -62 233 -57 311 16 94 86 91
243 -6 326 -71 61 -376 174 -597 221 -112 24 -352 24 -460 0 -63 -14 -195 -56
-251 -80 -11 -5 -154 186 -610 820 -326 455 -595 832 -597 838 -1 6 18 38 43
71 25 33 57 84 72 112 16 29 33 53 38 53 6 0 399 -126 875 -279 l865 -279 12
-123 c13 -147 24 -195 63 -298 65 -167 232 -401 440 -614 155 -160 269 -258
332 -287 147 -67 310 38 310 200 0 82 -26 125 -134 220 -215 190 -430 445
-509 605 -94 192 -67 389 72 520 115 108 234 170 414 214 167 42 272 53 476
49 l176 -3 49 31 c106 65 140 184 85 292 -25 49 -56 76 -116 103 -43 20 -71
23 -210 27 -357 9 -714 -71 -954 -214 -107 -63 -239 -170 -299 -243 l-48 -58
-710 229 c-390 126 -792 255 -894 287 l-185 59 -1 39 c0 21 -3 76 -5 122 l-4
85 605 161 c333 89 736 197 895 240 160 43 311 83 336 88 l45 10 120 -119
c140 -140 262 -229 434 -318 271 -139 526 -195 636 -138 87 44 129 122 122
222 -8 116 -82 180 -234 205 -328 53 -681 307 -792 569 -24 54 -26 74 -26 176
0 99 4 126 28 195 29 85 83 191 143 283 48 73 238 269 283 292 73 38 114 107
114 195 1 78 -31 138 -96 181 -89 60 -189 52 -304 -25 -73 -49 -251 -230 -325
-331 -209 -285 -311 -579 -296 -853 5 -92 4 -99 -16 -112 -20 -13 -1803 -495
-1831 -495 -7 0 -41 37 -76 81 -130 165 -309 289 -518 359 l-87 29 -3 974 -2
973 57 18 c90 29 222 99 311 166 209 157 480 496 605 758 34 71 42 97 41 142
-2 151 -147 254 -292 207z m-860 -3671 c259 -50 460 -240 524 -496 72 -286
-77 -609 -342 -740 -381 -187 -843 25 -938 430 -20 83 -20 239 -1 315 24 93
87 213 150 282 155 172 386 251 607 209z"/>
<path d="M9706 10216 c-47 -18 -91 -58 -119 -111 -70 -132 47 -443 270 -717
128 -157 291 -281 510 -385 65 -31 120 -58 122 -59 2 -2 -124 -477 -280 -1056
-312 -1161 -306 -1135 -255 -1222 90 -153 313 -144 389 16 14 29 153 531 309
1115 l283 1062 75 6 c238 21 535 132 715 267 116 88 250 230 290 311 43 86 48
173 14 244 -76 157 -307 163 -387 10 -36 -70 -164 -195 -251 -247 -89 -53
-262 -114 -366 -130 -176 -27 -366 22 -577 148 -203 120 -357 313 -428 534
-36 113 -60 151 -116 191 -50 35 -138 45 -198 23z"/>
<path d="M4512 6684 l-22 -15 0 -3166 c0 -2471 3 -3175 12 -3207 25 -81 110
-136 211 -136 71 0 154 45 182 100 13 26 15 403 15 3212 0 1751 -4 3188 -8
3194 -18 28 -56 34 -209 34 -127 0 -163 -3 -181 -16z" fill="#d2fc51" />
</g>
</svg>
